HIERARCHY
ROOT Hips
{
  OFFSET -0.949901 96.935 0.952837
  CHANNELS 6 Xposition Yposition Zposition Zrotation Xrotation Yrotation
  JOINT Spine
  {
    OFFSET 0 10.1816 0.1315
    CHANNELS 6 Xposition Yposition Zposition Zrotation Xrotation Yrotation
    JOINT Spine1
    {
      OFFSET 0 10.0835 -1.0008
      CHANNELS 6 Xposition Yposition Zposition Zrotation Xrotation Yrotation
      JOINT Spine2
      {
        OFFSET 0 9.1 -1.3734
        CHANNELS 6 Xposition Yposition Zposition Zrotation Xrotation Yrotation
        JOINT Neck1
        {
          OFFSET 0 16.6717 -2.5162
          CHANNELS 6 Xposition Yposition Zposition Zrotation Xrotation Yrotation
          JOINT Neck2
          {
            OFFSET 0 9.6179 1.685
            CHANNELS 6 Xposition Yposition Zposition Zrotation Xrotation Yrotation
            JOINT Skull
            {
              OFFSET 0 7.59293 2.585
              CHANNELS 6 Xposition Yposition Zposition Zrotation Xrotation Yrotation
              End Site
              {
                OFFSET 0 0 0
              }
            }
          }
        }
        JOINT LeftShoulder
        {
          OFFSET 4.5704 10.946 -2.628
          CHANNELS 6 Xposition Yposition Zposition Zrotation Xrotation Yrotation
          JOINT LeftArm
          {
            OFFSET 10.5924 -0.5246 -2.2321
            CHANNELS 6 Xposition Yposition Zposition Zrotation Xrotation Yrotation
            JOINT LeftForeArm
            {
              OFFSET 27.8415 -0.0001 0
              CHANNELS 6 Xposition Yposition Zposition Zrotation Xrotation Yrotation
              JOINT LeftHand
              {
                OFFSET 28.3288 0 0
                CHANNELS 6 Xposition Yposition Zposition Zrotation Xrotation Yrotation
                JOINT LeftHandThumb1
                {
                  OFFSET 2.4661 -1.575 2.6824
                  CHANNELS 6 Xposition Yposition Zposition Zrotation Xrotation Yrotation
                  JOINT LeftHandThumb2
                  {
                    OFFSET 3.2298 -1.8647 1.8647
                    CHANNELS 6 Xposition Yposition Zposition Zrotation Xrotation Yrotation
                    End Site
                    {
                      OFFSET 2.6526 -1.5315 1.5315
                    }
                  }
                }
                JOINT LeftHandIndex1
                {
                  OFFSET 9.1093 -0.5171 2.2601
                  CHANNELS 6 Xposition Yposition Zposition Zrotation Xrotation Yrotation
                  JOINT LeftHandIndex2
                  {
                    OFFSET 3.6764 0 0
                    CHANNELS 6 Xposition Yposition Zposition Zrotation Xrotation Yrotation
                    End Site
                    {
                      OFFSET 2.8831 0 0
                    }
                  }
                }
                JOINT LeftHandMiddle1
                {
                  OFFSET 9.5334 0 0
                  CHANNELS 6 Xposition Yposition Zposition Zrotation Xrotation Yrotation
                  JOINT LeftHandMiddle2
                  {
                    OFFSET 3.6982 0 0
                    CHANNELS 6 Xposition Yposition Zposition Zrotation Xrotation Yrotation
                    End Site
                    {
                      OFFSET 2.9509 0 0
                    }
                  }
                }
                JOINT LeftHandRing1
                {
                  OFFSET 9.1045 -0.0439 -1.8651
                  CHANNELS 6 Xposition Yposition Zposition Zrotation Xrotation Yrotation
                  JOINT LeftHandRing2
                  {
                    OFFSET 3.154 0 0
                    CHANNELS 6 Xposition Yposition Zposition Zrotation Xrotation Yrotation
                    End Site
                    {
                      OFFSET 2.9377 0 0
                    }
                  }
                }
                JOINT LeftHandPinky1
                {
                  OFFSET 8.0778 -0.4887 -3.8061
                  CHANNELS 6 Xposition Yposition Zposition Zrotation Xrotation Yrotation
                  JOINT LeftHandPinky2
                  {
                    OFFSET 3.6 0 0
                    CHANNELS 6 Xposition Yposition Zposition Zrotation Xrotation Yrotation
                    End Site
                    {
                      OFFSET 2.1142 0 0
                    }
                  }
                }
              }
            }
          }
        }
        JOINT RightShoulder
        {
          OFFSET -4.57 10.9462 -2.628
          CHANNELS 6 Xposition Yposition Zposition Zrotation Xrotation Yrotation
          JOINT RightArm
          {
            OFFSET -10.5928 -0.5248 -2.2321
            CHANNELS 6 Xposition Yposition Zposition Zrotation Xrotation Yrotation
            JOINT RightForeArm
            {
              OFFSET -27.8415 0 0
              CHANNELS 6 Xposition Yposition Zposition Zrotation Xrotation Yrotation
              JOINT RightHand
              {
                OFFSET -28.3288 0 0.0001
                CHANNELS 6 Xposition Yposition Zposition Zrotation Xrotation Yrotation
                JOINT RightHandPinky1
                {
                  OFFSET -8.0767 -0.4885 -3.806
                  CHANNELS 6 Xposition Yposition Zposition Zrotation Xrotation Yrotation
                  JOINT RightHandPinky2
                  {
                    OFFSET -3.6 0 0.0001
                    CHANNELS 6 Xposition Yposition Zposition Zrotation Xrotation Yrotation
                    End Site
                    {
                      OFFSET -2.1142 0 0
                    }
                  }
                }
                JOINT RightHandRing1
                {
                  OFFSET -9.1036 -0.0439 -1.8651
                  CHANNELS 6 Xposition Yposition Zposition Zrotation Xrotation Yrotation
                  JOINT RightHandRing2
                  {
                    OFFSET -3.154 0 0
                    CHANNELS 6 Xposition Yposition Zposition Zrotation Xrotation Yrotation
                    End Site
                    {
                      OFFSET -2.9377 0 0
                    }
                  }
                }
                JOINT RightHandMiddle1
                {
                  OFFSET -9.5325 0 0
                  CHANNELS 6 Xposition Yposition Zposition Zrotation Xrotation Yrotation
                  JOINT RightHandMiddle2
                  {
                    OFFSET -3.6982 0 0
                    CHANNELS 6 Xposition Yposition Zposition Zrotation Xrotation Yrotation
                    End Site
                    {
                      OFFSET -2.9509 0 0
                    }
                  }
                }
                JOINT RightHandIndex1
                {
                  OFFSET -9.1083 -0.5168 2.2601
                  CHANNELS 6 Xposition Yposition Zposition Zrotation Xrotation Yrotation
                  JOINT RightHandIndex2
                  {
                    OFFSET -3.6764 0 0
                    CHANNELS 6 Xposition Yposition Zposition Zrotation Xrotation Yrotation
                    End Site
                    {
                      OFFSET -2.8831 0 0
                    }
                  }
                }
                JOINT RightHandThumb1
                {
                  OFFSET -2.4648 -1.5727 2.6826
                  CHANNELS 6 Xposition Yposition Zposition Zrotation Xrotation Yrotation
                  JOINT RightHandThumb2
                  {
                    OFFSET -3.2298 -1.8647 1.8647
                    CHANNELS 6 Xposition Yposition Zposition Zrotation Xrotation Yrotation
                    End Site
                    {
                      OFFSET -2.6526 -1.5314 1.5314
                    }
                  }
                }
              }
            }
          }
        }
      }
    }
  }
  JOINT LeftUpLeg
  {
    OFFSET 8.2078 -6.7517 -1.5996
    CHANNELS 6 Xposition Yposition Zposition Zrotation Xrotation Yrotation
    JOINT LeftLeg
    {
      OFFSET 0 -44.3705 0.2846
      CHANNELS 6 Xposition Yposition Zposition Zrotation Xrotation Yrotation
      JOINT LeftFoot
      {
        OFFSET 0 -44.4279 -2.9822
        CHANNELS 6 Xposition Yposition Zposition Zrotation Xrotation Yrotation
        End Site
        {
          OFFSET 0 -8.7287 10.7106
        }
      }
    }
  }
  JOINT RightUpLeg
  {
    OFFSET -8.2078 -6.7517 -1.5996
    CHANNELS 6 Xposition Yposition Zposition Zrotation Xrotation Yrotation
    JOINT RightLeg
    {
      OFFSET 0 -44.3705 0.2862
      CHANNELS 6 Xposition Yposition Zposition Zrotation Xrotation Yrotation
      JOINT RightFoot
      {
        OFFSET 0 -44.4277 -2.9838
        CHANNELS 6 Xposition Yposition Zposition Zrotation Xrotation Yrotation
        End Site
        {
          OFFSET 0 -8.7287 10.7106
        }
      }
    }
  }
}
MOTION
Frames:	4
Frame Time:	0.0416667
-0.949901 96.935 0.952837 -3.06228 -3.22426 -43.2545 -5.55112e-017 10.1816 0.1315 -1.07575 5.732 4.74176 4.44089e-016 10.0835 -1.0008 -3.10645 11.3345 9.66209 0 9.1 -1.3734 -3.10645 11.3345 9.66208 2.22045e-016 16.6717 -2.5162 0.0605398 -1.07652 -0.315606 0 9.6179 1.685 0.0605411 -1.07659 -0.315608 -8.88178e-016 7.59293 2.585 0.0604948 -1.07661 -0.315631 4.5704 10.946 -2.628 -7.87829 1.46986 -0.500258 10.5924 -0.5246 -2.2321 -64.449 -8.44869 -11.7724 27.8415 -0.0001 -3.55271e-015 4.0172 5.47227 -48.0616 28.3288 7.10543e-015 0 19.5406 15.6086 -4.47819 2.4661 -1.575 2.6824 -5.53539 8.65118 5.66067 3.2298 -1.8647 1.8647 0.784249 -0.334761 0.0379435 9.1093 -0.5171 2.2601 -3.77712 -0.437678 -7.0268 3.6764 0 -7.10543e-015 -16.4177 -0.201372 0.773776 9.5334 0 -7.10543e-015 -14.3331 -0.532313 9.85281 3.6982 1.42109e-014 3.55271e-015 -21.8718 0.156815 -1.63326 9.1045 -0.0439 -1.8651 -30.3378 -5.43483 14.1135 3.154 -7.10543e-015 3.55271e-015 -31.9757 0.95326 -2.60996 8.0778 -0.4887 -3.8061 -33.2301 -6.99427 17.6327 3.6 7.10543e-015 0 -39.1997 3.12647 -4.94508 -4.57 10.9462 -2.628 9.67155 2.99306 9.08899 -10.5928 -0.5248 -2.2321 57.8196 -20.3234 -13.6121 -27.8415 0 0 5.98369 -1.26656 42.2726 -28.3288 0 0.0001 11.5263 8.60215 10.8327 -8.0767 -0.4885 -3.806 24.2427 0.715804 -10.5799 -3.6 0 0.0001 40.2052 6.11501 8.062 -9.1036 -0.0439 -1.8651 21.8038 1.17857 -7.76519 -3.154 -3.55271e-015 -3.55271e-015 37.0614 3.52058 4.64512 -9.5325 -7.10543e-015 0 12.7982 0.386717 -2.68002 -3.6982 7.10543e-015 3.55271e-015 30.4061 2.27182 2.75604 -9.1083 -0.5168 2.2601 4.55893 0.493165 -1.12463 -3.6764 -7.10543e-015 -1.77636e-015 16.9842 1.56678 -0.610401 -2.4648 -1.5727 2.6826 -0.394567 -8.87274 -4.95478 -3.2298 -1.8647 1.8647 -2.72261 8.83552 -18.7919 8.2078 -6.7517 -1.5996 14.6341 -23.5895 12.3475 0 -44.3705 0.2846 -0.240943 33.9236 -13.9904 3.55271e-015 -44.4279 -2.9822 -7.31608 -5.55192 0.0072072 -8.2078 -6.7517 -1.5996 -14.4277 -1.79334 -14.6861 0 -44.3705 0.2862 -0.501226 33.3603 -8.86915 0 -44.4277 -2.9838 17.2818 -20.4722 2.26415 
-0.945429 96.9373 0.958026 -2.99223 -3.19376 -43.4281 5.55112e-017 10.1816 0.1315 -1.10208 5.71926 4.74422 0 10.0835 -1.0008 -3.15037 11.3072 9.66664 0 9.1 -1.3734 -3.15037 11.3072 9.66664 2.22045e-016 16.6717 -2.5162 0.0453803 -1.1013 -0.319814 1.33227e-015 9.6179 1.685 0.0453768 -1.10129 -0.319815 -4.44089e-016 7.59293 2.585 0.0453842 -1.1013 -0.319816 4.5704 10.946 -2.628 -7.88431 1.47456 -0.516869 10.5924 -0.5246 -2.2321 -64.3877 -8.45311 -11.7375 27.8415 -0.0001 3.55271e-015 4.02752 5.49747 -48.1271 28.3288 1.42109e-014 0 19.5103 15.6138 -4.47676 2.4661 -1.575 2.6824 -5.49296 8.91981 6.10538 3.2298 -1.8647 1.8647 0.874753 -0.118457 0.515007 9.1093 -0.5171 2.2601 -4.20225 -0.365827 -7.02394 3.6764 0 3.55271e-015 -16.8945 -0.208044 0.714258 9.5334 1.42109e-014 3.55271e-015 -14.7969 -0.612688 9.80935 3.6982 -1.42109e-014 0 -22.3123 0.17185 -1.68011 9.1045 -0.0439 -1.8651 -30.7713 -5.54311 14.0344 3.154 7.10543e-015 1.77636e-015 -32.4555 0.975037 -2.64234 8.0778 -0.4887 -3.8061 -33.6619 -7.13963 17.549 3.6 0 -1.77636e-015 -39.6441 3.16467 -4.93043 -4.57 10.9462 -2.628 9.68634 2.99034 9.16524 -10.5928 -0.5248 -2.2321 57.814 -20.273 -13.5515 -27.8415 0 7.10543e-015 5.99 -1.2282 42.0704 -28.3288 0 0.0001 11.3175 8.60189 10.7446 -8.0767 -0.4885 -3.806 23.989 0.764735 -10.6225 -3.6 -5.32907e-015 0.0001 39.944 6.08516 8.05166 -9.1036 -0.0439 -1.8651 21.5829 1.20692 -7.80982 -3.154 3.55271e-015 0 36.7721 3.49738 4.61435 -9.5325 7.10543e-015 3.55271e-015 12.5334 0.399301 -2.72283 -3.6982 -7.10543e-015 0 30.1525 2.25968 2.73537 -9.1083 -0.5168 2.2601 4.30311 0.500407 -1.14926 -3.6764 0 1.77636e-015 16.8703 1.56806 -0.625579 -2.4648 -1.5727 2.6826 -0.0639726 -8.47593 -4.90992 -3.2298 -1.8647 1.8647 -2.79267 8.81143 -18.7995 8.2078 -6.7517 -1.5996 14.5747 -23.5984 12.3222 3.55271e-015 -44.3705 0.2846 -0.16556 33.8983 -13.8204 0 -44.4279 -2.9822 -7.42001 -5.58528 0.00686249 -8.2078 -6.7517 -1.5996 -14.4341 -1.94931 -14.7076 0 -44.3705 0.2862 -0.681365 33.3885 -8.64007 -3.55271e-015 -44.4277 -2.9838 17.3065 -20.4604 2.26409 
-0.939201 96.9354 0.958111 -2.91115 -3.14752 -43.5615 0 10.1816 0.1315 -1.11695 5.71376 4.7049 0 10.0835 -1.0008 -3.16821 11.2966 9.58634 4.44089e-016 9.1 -1.3734 -3.16821 11.2966 9.58635 4.44089e-016 16.6717 -2.5162 0.0209378 -1.12301 -0.287176 -4.44089e-016 9.6179 1.685 0.0209361 -1.12298 -0.287174 0 7.59293 2.585 0.0209425 -1.12299 -0.287191 4.5704 10.946 -2.628 -7.91049 1.47706 -0.532443 10.5924 -0.5246 -2.2321 -64.3579 -8.45728 -11.6751 27.8415 -0.0001 0 4.03319 5.5025 -48.2181 28.3288 1.42109e-014 7.10543e-015 19.4369 15.6053 -4.46587 2.4661 -1.575 2.6824 -5.40457 9.09428 6.5374 3.2298 -1.8647 1.8647 0.932151 0.160227 1.07106 9.1093 -0.5171 2.2601 -4.60826 -0.308187 -7.03328 3.6764 0 3.55271e-015 -17.2827 -0.212705 0.665821 9.5334 1.42109e-014 3.55271e-015 -15.212 -0.684414 9.7699 3.6982 0 3.55271e-015 -22.6968 0.185409 -1.72108 9.1045 -0.0439 -1.8651 -31.2089 -5.65376 13.9617 3.154 -7.10543e-015 -1.77636e-015 -32.8381 0.991534 -2.66495 8.0778 -0.4887 -3.8061 -34.0544 -7.26399 17.4673 3.6 0 -3.55271e-015 -40.0169 3.19663 -4.91794 -4.57 10.9462 -2.628 9.67058 2.99234 9.21401 -10.5928 -0.5248 -2.2321 57.8487 -20.2634 -13.4534 -27.8415 1.42109e-014 7.10543e-015 5.96453 -1.23401 41.8152 -28.3288 0 0.0001 11.1715 8.69621 10.5333 -8.0767 -0.4885 -3.806 23.6859 0.824452 -10.6677 -3.6 0 0.0001 39.6336 6.04389 8.0408 -9.1036 -0.0439 -1.8651 21.2489 1.24571 -7.83287 -3.154 3.55271e-015 0 36.4697 3.47378 4.58602 -9.5325 -7.10543e-015 0 12.2393 0.413233 -2.73799 -3.6982 0 7.10543e-015 29.867 2.24566 2.70861 -9.1083 -0.5168 2.2601 4.02529 0.508275 -1.17642 -3.6764 0 3.55271e-015 16.584 1.57132 -0.663834 -2.4648 -1.5727 2.6826 0.0788748 -8.28952 -5.07824 -3.2298 -1.8647 1.8647 -2.71387 8.86418 -18.7805 8.2078 -6.7517 -1.5996 14.5154 -23.6578 12.2836 3.55271e-015 -44.3705 0.2846 -0.0870697 33.884 -13.6766 0 -44.4279 -2.9822 -7.52431 -5.61567 -0.000340782 -8.2078 -6.7517 -1.5996 -14.428 -2.1202 -14.7131 3.55271e-015 -44.3705 0.2862 -0.85493 33.4224 -8.46871 -3.55271e-015 -44.4277 -2.9838 17.3596 -20.448 2.26508 
-0.933217 96.9173 0.963543 -2.85517 -3.08868 -43.613 5.55112e-017 10.1816 0.1315 -1.11046 5.71714 4.62291 2.22045e-016 10.0835 -1.0008 -3.14702 11.3065 9.41919 0 9.1 -1.3734 -3.14702 11.3065 9.41918 0 16.6717 -2.5162 0.00272831 -1.14881 -0.236946 8.88178e-016 9.6179 1.685 0.00272675 -1.14881 -0.236939 4.44089e-016 7.59293 2.585 0.00272832 -1.14881 -0.236946 4.5704 10.946 -2.628 -7.86917 1.47489 -0.536104 10.5924 -0.5246 -2.2321 -64.3891 -8.45115 -11.6407 27.8415 -0.0001 -7.10543e-015 4.05788 5.51849 -48.3232 28.3288 -1.42109e-014 0 19.4697 15.6102 -4.45892 2.4661 -1.575 2.6824 -5.352 9.36825 7.01085 3.2298 -1.8647 1.8647 1.01667 0.412544 1.6074 9.1093 -0.5171 2.2601 -4.963 -0.26613 -7.06436 3.6764 -1.42109e-014 -7.10543e-015 -17.6212 -0.216214 0.623578 9.5334 0 3.55271e-015 -15.561 -0.743675 9.73636 3.6982 0 7.10543e-015 -23.0455 0.197608 -1.75796 9.1045 -0.0439 -1.8651 -31.5237 -5.73131 13.8989 3.154 0 -1.77636e-015 -33.1743 1.00677 -2.68667 8.0778 -0.4887 -3.8061 -34.3861 -7.36742 17.4259 3.6 0 1.77636e-015 -40.372 3.2269 -4.90584 -4.57 10.9462 -2.628 9.70398 2.98743 9.27119 -10.5928 -0.5248 -2.2321 57.7583 -20.229 -13.4389 -27.8415 1.42109e-014 1.42109e-014 5.97088 -1.18425 41.6571 -28.3288 0 0.0001 11.0596 8.69772 10.3338 -8.0767 -0.4885 -3.806 23.3317 0.894197 -10.7218 -3.6 3.55271e-015 0.0001 39.2902 5.99548 8.0295 -9.1036 -0.0439 -1.8651 20.9713 1.29554 -7.87201 -3.154 0 3.55271e-015 36.1464 3.4473 4.55831 -9.5325 0 3.55271e-015 11.9478 0.42709 -2.75426 -3.6982 0 -3.55271e-015 29.5097 2.22862 2.66888 -9.1083 -0.5168 2.2601 3.71109 0.517728 -1.20788 -3.6764 7.10543e-015 1.77636e-015 16.2362 1.57575 -0.710179 -2.4648 -1.5727 2.6826 0.268227 -8.06246 -5.21898 -3.2298 -1.8647 1.8647 -2.63664 8.91212 -18.7897 8.2078 -6.7517 -1.5996 14.4437 -23.7763 12.1955 0 -44.3705 0.2846 0.0506857 33.944 -13.5902 0 -44.4279 -2.9822 -7.63403 -5.67939 -0.0192912 -8.2078 -6.7517 -1.5996 -14.3854 -2.26862 -14.7213 -3.55271e-015 -44.3705 0.2862 -1.01388 33.4899 -8.37533 3.55271e-015 -44.4277 -2.9838 17.4366 -20.4617 2.27877 
